<svg viewBox="0 0 560 560" xmlns="http://www.w3.org/2000/svg">
  <defs>
    <radialGradient id="petalShadeA" cx="50%" cy="50%" r="60%">
      <stop offset="0%" stop-color="#ffe27a"/>
      <stop offset="100%" stop-color="#f7c948"/>
    </radialGradient>
  </defs>

  <!-- top-right flower, peeking above/behind where the ball will sit -->
  <g transform="translate(430,70) scale(0.75)">
    <g fill="url(#petalShadeA)">
      <ellipse cx="0" cy="-78" rx="38" ry="50"/>
      <ellipse cx="55" cy="-55" rx="38" ry="50" transform="rotate(45 55 -55)"/>
      <ellipse cx="78" cy="0" rx="38" ry="50" transform="rotate(90 78 0)"/>
      <ellipse cx="55" cy="55" rx="38" ry="50" transform="rotate(135 55 55)"/>
      <ellipse cx="0" cy="78" rx="38" ry="50" transform="rotate(180 0 78)"/>
      <ellipse cx="-55" cy="55" rx="38" ry="50" transform="rotate(225 -55 55)"/>
      <ellipse cx="-78" cy="0" rx="38" ry="50" transform="rotate(270 -78 0)"/>
      <ellipse cx="-55" cy="-55" rx="38" ry="50" transform="rotate(315 -55 -55)"/>
    </g>
    <circle cx="0" cy="0" r="32" fill="#ec1e79"/>
  </g>

  <!-- big flower, right edge, behind ball position -->
  <g transform="translate(470,230) scale(1)">
    <g fill="url(#petalShadeA)">
      <ellipse cx="0" cy="-78" rx="38" ry="50"/>
      <ellipse cx="55" cy="-55" rx="38" ry="50" transform="rotate(45 55 -55)"/>
      <ellipse cx="78" cy="0" rx="38" ry="50" transform="rotate(90 78 0)"/>
      <ellipse cx="55" cy="55" rx="38" ry="50" transform="rotate(135 55 55)"/>
      <ellipse cx="0" cy="78" rx="38" ry="50" transform="rotate(180 0 78)"/>
      <ellipse cx="-55" cy="55" rx="38" ry="50" transform="rotate(225 -55 55)"/>
      <ellipse cx="-78" cy="0" rx="38" ry="50" transform="rotate(270 -78 0)"/>
      <ellipse cx="-55" cy="-55" rx="38" ry="50" transform="rotate(315 -55 -55)"/>
    </g>
    <circle cx="0" cy="0" r="32" fill="#ec1e79"/>
  </g>

  <!-- medium flower, following the left green arrow (down-left from the ball) -->
  <g transform="translate(260,300) scale(0.7)">
    <g fill="url(#petalShadeA)">
      <ellipse cx="0" cy="-78" rx="38" ry="50"/>
      <ellipse cx="55" cy="-55" rx="38" ry="50" transform="rotate(45 55 -55)"/>
      <ellipse cx="78" cy="0" rx="38" ry="50" transform="rotate(90 78 0)"/>
      <ellipse cx="55" cy="55" rx="38" ry="50" transform="rotate(135 55 55)"/>
      <ellipse cx="0" cy="78" rx="38" ry="50" transform="rotate(180 0 78)"/>
      <ellipse cx="-55" cy="55" rx="38" ry="50" transform="rotate(225 -55 55)"/>
      <ellipse cx="-78" cy="0" rx="38" ry="50" transform="rotate(270 -78 0)"/>
      <ellipse cx="-55" cy="-55" rx="38" ry="50" transform="rotate(315 -55 -55)"/>
    </g>
    <circle cx="0" cy="0" r="32" fill="#ec1e79"/>
  </g>

  <!-- medium flower, following the right green arrow (down from the ball) -->
  <g transform="translate(420,420) scale(0.6)">
    <g fill="url(#petalShadeA)">
      <ellipse cx="0" cy="-78" rx="38" ry="50"/>
      <ellipse cx="55" cy="-55" rx="38" ry="50" transform="rotate(45 55 -55)"/>
      <ellipse cx="78" cy="0" rx="38" ry="50" transform="rotate(90 78 0)"/>
      <ellipse cx="55" cy="55" rx="38" ry="50" transform="rotate(135 55 55)"/>
      <ellipse cx="0" cy="78" rx="38" ry="50" transform="rotate(180 0 78)"/>
      <ellipse cx="-55" cy="55" rx="38" ry="50" transform="rotate(225 -55 55)"/>
      <ellipse cx="-78" cy="0" rx="38" ry="50" transform="rotate(270 -78 0)"/>
      <ellipse cx="-55" cy="-55" rx="38" ry="50" transform="rotate(315 -55 -55)"/>
    </g>
    <circle cx="0" cy="0" r="32" fill="#ec1e79"/>
  </g>

  <!-- small flower, far left of cluster, lowest point of the left arrow -->
  <g transform="translate(150,420) scale(0.4)">
    <g fill="url(#petalShadeA)">
      <ellipse cx="0" cy="-78" rx="38" ry="50"/>
      <ellipse cx="55" cy="-55" rx="38" ry="50" transform="rotate(45 55 -55)"/>
      <ellipse cx="78" cy="0" rx="38" ry="50" transform="rotate(90 78 0)"/>
      <ellipse cx="55" cy="55" rx="38" ry="50" transform="rotate(135 55 55)"/>
      <ellipse cx="0" cy="78" rx="38" ry="50" transform="rotate(180 0 78)"/>
      <ellipse cx="-55" cy="55" rx="38" ry="50" transform="rotate(225 -55 55)"/>
      <ellipse cx="-78" cy="0" rx="38" ry="50" transform="rotate(270 -78 0)"/>
      <ellipse cx="-55" cy="-55" rx="38" ry="50" transform="rotate(315 -55 -55)"/>
    </g>
    <circle cx="0" cy="0" r="32" fill="#ec1e79"/>
  </g>
</svg>
