<svg viewBox="0 0 420 420" xmlns="http://www.w3.org/2000/svg">
  <defs>
    <radialGradient id="petalShadeA" cx="50%" cy="50%" r="60%">
      <stop offset="0%" stop-color="#ffe27a"/>
      <stop offset="100%" stop-color="#f7c948"/>
    </radialGradient>
  </defs>

  <!-- helper: a single 8-petal flower, reused at different sizes/positions -->
  <!-- big flower, upper right -->
  <g transform="translate(290,110) scale(1)">
    <g fill="url(#petalShadeA)">
      <ellipse cx="0" cy="-78" rx="38" ry="50"/>
      <ellipse cx="55" cy="-55" rx="38" ry="50" transform="rotate(45 55 -55)"/>
      <ellipse cx="78" cy="0" rx="38" ry="50" transform="rotate(90 78 0)"/>
      <ellipse cx="55" cy="55" rx="38" ry="50" transform="rotate(135 55 55)"/>
      <ellipse cx="0" cy="78" rx="38" ry="50" transform="rotate(180 0 78)"/>
      <ellipse cx="-55" cy="55" rx="38" ry="50" transform="rotate(225 -55 55)"/>
      <ellipse cx="-78" cy="0" rx="38" ry="50" transform="rotate(270 -78 0)"/>
      <ellipse cx="-55" cy="-55" rx="38" ry="50" transform="rotate(315 -55 -55)"/>
    </g>
    <circle cx="0" cy="0" r="32" fill="#ec1e79"/>
  </g>

  <!-- medium flower, lower left of cluster (behind/left of ball) -->
  <g transform="translate(120,230) scale(0.62)">
    <g fill="url(#petalShadeA)">
      <ellipse cx="0" cy="-78" rx="38" ry="50"/>
      <ellipse cx="55" cy="-55" rx="38" ry="50" transform="rotate(45 55 -55)"/>
      <ellipse cx="78" cy="0" rx="38" ry="50" transform="rotate(90 78 0)"/>
      <ellipse cx="55" cy="55" rx="38" ry="50" transform="rotate(135 55 55)"/>
      <ellipse cx="0" cy="78" rx="38" ry="50" transform="rotate(180 0 78)"/>
      <ellipse cx="-55" cy="55" rx="38" ry="50" transform="rotate(225 -55 55)"/>
      <ellipse cx="-78" cy="0" rx="38" ry="50" transform="rotate(270 -78 0)"/>
      <ellipse cx="-55" cy="-55" rx="38" ry="50" transform="rotate(315 -55 -55)"/>
    </g>
    <circle cx="0" cy="0" r="32" fill="#ec1e79"/>
  </g>

  <!-- small flower, bottom right -->
  <g transform="translate(340,330) scale(0.4)">
    <g fill="url(#petalShadeA)">
      <ellipse cx="0" cy="-78" rx="38" ry="50"/>
      <ellipse cx="55" cy="-55" rx="38" ry="50" transform="rotate(45 55 -55)"/>
      <ellipse cx="78" cy="0" rx="38" ry="50" transform="rotate(90 78 0)"/>
      <ellipse cx="55" cy="55" rx="38" ry="50" transform="rotate(135 55 55)"/>
      <ellipse cx="0" cy="78" rx="38" ry="50" transform="rotate(180 0 78)"/>
      <ellipse cx="-55" cy="55" rx="38" ry="50" transform="rotate(225 -55 55)"/>
      <ellipse cx="-78" cy="0" rx="38" ry="50" transform="rotate(270 -78 0)"/>
      <ellipse cx="-55" cy="-55" rx="38" ry="50" transform="rotate(315 -55 -55)"/>
    </g>
    <circle cx="0" cy="0" r="32" fill="#ec1e79"/>
  </g>

  <!-- small flower, top left of cluster -->
  <g transform="translate(80,70) scale(0.32)">
    <g fill="url(#petalShadeA)">
      <ellipse cx="0" cy="-78" rx="38" ry="50"/>
      <ellipse cx="55" cy="-55" rx="38" ry="50" transform="rotate(45 55 -55)"/>
      <ellipse cx="78" cy="0" rx="38" ry="50" transform="rotate(90 78 0)"/>
      <ellipse cx="55" cy="55" rx="38" ry="50" transform="rotate(135 55 55)"/>
      <ellipse cx="0" cy="78" rx="38" ry="50" transform="rotate(180 0 78)"/>
      <ellipse cx="-55" cy="55" rx="38" ry="50" transform="rotate(225 -55 55)"/>
      <ellipse cx="-78" cy="0" rx="38" ry="50" transform="rotate(270 -78 0)"/>
      <ellipse cx="-55" cy="-55" rx="38" ry="50" transform="rotate(315 -55 -55)"/>
    </g>
    <circle cx="0" cy="0" r="32" fill="#ec1e79"/>
  </g>
</svg>
